<svg id="visual" viewBox="0 0 960 540" width="960" height="540" xmlns="http://www.w3.org/2000/svg" xmlns:xlink="http://www.w3.org/1999/xlink" version="1.1"><g stroke-width="1" stroke-linejoin="bevel"><path d="M474.4 280.6L547.6 222.4L463.4 255.4Z" fill="#524d45" stroke="#524d45"></path><path d="M547.6 222.4L489.6 162.3L463.4 255.4Z" fill="#37332e" stroke="#37332e"></path><path d="M423.4 375.7L490.6 344.6L474.4 280.6Z" fill="#575249" stroke="#575249"></path><path d="M474.4 280.6L604.9 334.6L547.6 222.4Z" fill="#403b35" stroke="#403b35"></path><path d="M604.9 334.6L603.9 202.4L547.6 222.4Z" fill="#37332e" stroke="#37332e"></path><path d="M547.6 222.4L607.9 145.3L489.6 162.3Z" fill="#524d45" stroke="#524d45"></path><path d="M489.6 162.3L413.4 182.3L463.4 255.4Z" fill="#605b52" stroke="#605b52"></path><path d="M333.1 280.6L423.4 375.7L474.4 280.6Z" fill="#575249" stroke="#575249"></path><path d="M490.6 344.6L604.9 334.6L474.4 280.6Z" fill="#49443d" stroke="#49443d"></path><path d="M490.6 344.6L598.9 355.7L604.9 334.6Z" fill="#332f2a" stroke="#332f2a"></path><path d="M679.2 214.4L607.9 145.3L603.9 202.4Z" fill="#5b564e" stroke="#5b564e"></path><path d="M603.9 202.4L607.9 145.3L547.6 222.4Z" fill="#4e4941" stroke="#4e4941"></path><path d="M333.1 280.6L474.4 280.6L463.4 255.4Z" fill="#49443d" stroke="#49443d"></path><path d="M490.6 344.6L551.6 414.7L598.9 355.7Z" fill="#332f2a" stroke="#332f2a"></path><path d="M494.6 423.9L551.6 414.7L490.6 344.6Z" fill="#575249" stroke="#575249"></path><path d="M706.2 324.6L679.2 214.4L604.9 334.6Z" fill="#49443d" stroke="#49443d"></path><path d="M604.9 334.6L679.2 214.4L603.9 202.4Z" fill="#3c3731" stroke="#3c3731"></path><path d="M423.4 375.7L494.6 423.9L490.6 344.6Z" fill="#605b52" stroke="#605b52"></path><path d="M489.6 162.3L423.4 93.1L413.4 182.3Z" fill="#403b35" stroke="#403b35"></path><path d="M531.6 60.1L423.4 93.1L489.6 162.3Z" fill="#5b564e" stroke="#5b564e"></path><path d="M330.1 183.3L333.1 280.6L413.4 182.3Z" fill="#454039" stroke="#454039"></path><path d="M413.4 182.3L333.1 280.6L463.4 255.4Z" fill="#4e4941" stroke="#4e4941"></path><path d="M644.9 78.1L531.6 60.1L607.9 145.3Z" fill="#49443d" stroke="#49443d"></path><path d="M607.9 145.3L531.6 60.1L489.6 162.3Z" fill="#4e4941" stroke="#4e4941"></path><path d="M423.4 93.1L330.1 183.3L413.4 182.3Z" fill="#575249" stroke="#575249"></path><path d="M330.1 183.3L317.1 267.4L333.1 280.6Z" fill="#332f2a" stroke="#332f2a"></path><path d="M333.1 280.6L366.1 408.7L423.4 375.7Z" fill="#37332e" stroke="#37332e"></path><path d="M755.5 354.7L706.2 324.6L731.2 404.7Z" fill="#4e4941" stroke="#4e4941"></path><path d="M598.9 355.7L706.2 324.6L604.9 334.6Z" fill="#3c3731" stroke="#3c3731"></path><path d="M280.8 367.7L366.1 408.7L333.1 280.6Z" fill="#49443d" stroke="#49443d"></path><path d="M423.4 375.7L414.4 494.9L494.6 423.9Z" fill="#575249" stroke="#575249"></path><path d="M730.2 179.3L644.9 78.1L607.9 145.3Z" fill="#575249" stroke="#575249"></path><path d="M494.6 423.9L574.9 460.9L551.6 414.7Z" fill="#37332e" stroke="#37332e"></path><path d="M551.6 414.7L574.9 460.9L598.9 355.7Z" fill="#37332e" stroke="#37332e"></path><path d="M532.6 540L574.9 460.9L494.6 423.9Z" fill="#49443d" stroke="#49443d"></path><path d="M330.1 183.3L288.8 268.4L317.1 267.4Z" fill="#403b35" stroke="#403b35"></path><path d="M317.1 267.4L288.8 268.4L333.1 280.6Z" fill="#49443d" stroke="#49443d"></path><path d="M761.5 315.6L730.2 179.3L679.2 214.4Z" fill="#403b35" stroke="#403b35"></path><path d="M679.2 214.4L730.2 179.3L607.9 145.3Z" fill="#332f2a" stroke="#332f2a"></path><path d="M595.9 0L530.6 0L531.6 60.1Z" fill="#403b35" stroke="#403b35"></path><path d="M531.6 60.1L410.4 0L423.4 93.1Z" fill="#454039" stroke="#454039"></path><path d="M327.1 59.1L286.8 134.3L330.1 183.3Z" fill="#37332e" stroke="#37332e"></path><path d="M330.1 183.3L203.5 222.4L288.8 268.4Z" fill="#49443d" stroke="#49443d"></path><path d="M327.1 59.1L330.1 183.3L423.4 93.1Z" fill="#524d45" stroke="#524d45"></path><path d="M203.5 222.4L266.8 328.6L288.8 268.4Z" fill="#454039" stroke="#454039"></path><path d="M288.8 268.4L266.8 328.6L333.1 280.6Z" fill="#3c3731" stroke="#3c3731"></path><path d="M266.8 328.6L280.8 367.7L333.1 280.6Z" fill="#403b35" stroke="#403b35"></path><path d="M755.5 354.7L761.5 315.6L706.2 324.6Z" fill="#605b52" stroke="#605b52"></path><path d="M706.2 324.6L761.5 315.6L679.2 214.4Z" fill="#3c3731" stroke="#3c3731"></path><path d="M358.1 480.9L414.4 494.9L366.1 408.7Z" fill="#4e4941" stroke="#4e4941"></path><path d="M366.1 408.7L414.4 494.9L423.4 375.7Z" fill="#524d45" stroke="#524d45"></path><path d="M387.1 0L327.1 59.1L423.4 93.1Z" fill="#37332e" stroke="#37332e"></path><path d="M705.2 0L595.9 0L644.9 78.1Z" fill="#3c3731" stroke="#3c3731"></path><path d="M644.9 78.1L595.9 0L531.6 60.1Z" fill="#575249" stroke="#575249"></path><path d="M731.2 404.7L706.2 324.6L598.9 355.7Z" fill="#4e4941" stroke="#4e4941"></path><path d="M530.6 0L410.4 0L531.6 60.1Z" fill="#49443d" stroke="#49443d"></path><path d="M574.9 460.9L731.2 404.7L598.9 355.7Z" fill="#37332e" stroke="#37332e"></path><path d="M286.8 451.9L358.1 480.9L366.1 408.7Z" fill="#403b35" stroke="#403b35"></path><path d="M730.2 179.3L721.2 72.1L644.9 78.1Z" fill="#403b35" stroke="#403b35"></path><path d="M775.5 145.3L721.2 72.1L730.2 179.3Z" fill="#49443d" stroke="#49443d"></path><path d="M410.4 0L387.1 0L423.4 93.1Z" fill="#605b52" stroke="#605b52"></path><path d="M814.5 220.4L775.5 145.3L730.2 179.3Z" fill="#37332e" stroke="#37332e"></path><path d="M433.4 540L532.6 540L414.4 494.9Z" fill="#4e4941" stroke="#4e4941"></path><path d="M414.4 494.9L532.6 540L494.6 423.9Z" fill="#575249" stroke="#575249"></path><path d="M574.9 460.9L733.2 491.9L731.2 404.7Z" fill="#3c3731" stroke="#3c3731"></path><path d="M324.1 540L433.4 540L414.4 494.9Z" fill="#403b35" stroke="#403b35"></path><path d="M280.8 367.7L286.8 451.9L366.1 408.7Z" fill="#454039" stroke="#454039"></path><path d="M358.1 480.9L324.1 540L414.4 494.9Z" fill="#3c3731" stroke="#3c3731"></path><path d="M182.5 428.9L286.8 451.9L280.8 367.7Z" fill="#3c3731" stroke="#3c3731"></path><path d="M761.5 315.6L814.5 220.4L730.2 179.3Z" fill="#37332e" stroke="#37332e"></path><path d="M842.7 236.4L814.5 220.4L846.7 290.6Z" fill="#403b35" stroke="#403b35"></path><path d="M209.5 125.3L203.5 222.4L286.8 134.3Z" fill="#3c3731" stroke="#3c3731"></path><path d="M286.8 134.3L203.5 222.4L330.1 183.3Z" fill="#4e4941" stroke="#4e4941"></path><path d="M266.8 328.6L182.5 428.9L280.8 367.7Z" fill="#332f2a" stroke="#332f2a"></path><path d="M532.6 540L631.9 540L574.9 460.9Z" fill="#4e4941" stroke="#4e4941"></path><path d="M810.5 0L705.2 0L721.2 72.1Z" fill="#4e4941" stroke="#4e4941"></path><path d="M721.2 72.1L705.2 0L644.9 78.1Z" fill="#605b52" stroke="#605b52"></path><path d="M810.5 91.1L721.2 72.1L775.5 145.3Z" fill="#575249" stroke="#575249"></path><path d="M327.1 59.1L241.8 74.1L286.8 134.3Z" fill="#454039" stroke="#454039"></path><path d="M235.8 0L241.8 74.1L327.1 59.1Z" fill="#524d45" stroke="#524d45"></path><path d="M241.8 74.1L209.5 125.3L286.8 134.3Z" fill="#524d45" stroke="#524d45"></path><path d="M631.9 540L733.2 491.9L574.9 460.9Z" fill="#37332e" stroke="#37332e"></path><path d="M731.2 404.7L885.7 453.9L755.5 354.7Z" fill="#403b35" stroke="#403b35"></path><path d="M846.7 290.6L814.5 220.4L761.5 315.6Z" fill="#4e4941" stroke="#4e4941"></path><path d="M846.7 290.6L761.5 315.6L755.5 354.7Z" fill="#454039" stroke="#454039"></path><path d="M850.7 96.1L810.5 91.1L775.5 145.3Z" fill="#5b564e" stroke="#5b564e"></path><path d="M241.8 74.1L210.5 96.1L209.5 125.3Z" fill="#605b52" stroke="#605b52"></path><path d="M76.3 198.4L171.5 315.6L203.5 222.4Z" fill="#524d45" stroke="#524d45"></path><path d="M892.7 352.7L846.7 290.6L755.5 354.7Z" fill="#403b35" stroke="#403b35"></path><path d="M850.7 96.1L775.5 145.3L888.7 134.3Z" fill="#575249" stroke="#575249"></path><path d="M286.8 451.9L324.1 540L358.1 480.9Z" fill="#403b35" stroke="#403b35"></path><path d="M145.5 365.7L171.5 315.6L93.3 338.6Z" fill="#454039" stroke="#454039"></path><path d="M203.5 222.4L171.5 315.6L266.8 328.6Z" fill="#403b35" stroke="#403b35"></path><path d="M286.8 451.9L226.8 540L324.1 540Z" fill="#4e4941" stroke="#4e4941"></path><path d="M631.9 540L735.2 540L733.2 491.9Z" fill="#37332e" stroke="#37332e"></path><path d="M733.2 491.9L797.5 500.9L731.2 404.7Z" fill="#3c3731" stroke="#3c3731"></path><path d="M387.1 0L235.8 0L327.1 59.1Z" fill="#37332e" stroke="#37332e"></path><path d="M241.8 74.1L235.8 0L210.5 96.1Z" fill="#4e4941" stroke="#4e4941"></path><path d="M171.5 315.6L182.5 428.9L266.8 328.6Z" fill="#49443d" stroke="#49443d"></path><path d="M888.7 134.3L814.5 220.4L842.7 236.4Z" fill="#3c3731" stroke="#3c3731"></path><path d="M888.7 134.3L775.5 145.3L814.5 220.4Z" fill="#605b52" stroke="#605b52"></path><path d="M810.5 91.1L810.5 0L721.2 72.1Z" fill="#5b564e" stroke="#5b564e"></path><path d="M764.5 540L797.5 500.9L733.2 491.9Z" fill="#605b52" stroke="#605b52"></path><path d="M118.3 160.3L203.5 222.4L209.5 125.3Z" fill="#4e4941" stroke="#4e4941"></path><path d="M171.5 315.6L145.5 365.7L182.5 428.9Z" fill="#5b564e" stroke="#5b564e"></path><path d="M735.2 540L764.5 540L733.2 491.9Z" fill="#454039" stroke="#454039"></path><path d="M850.7 96.1L810.5 0L810.5 91.1Z" fill="#524d45" stroke="#524d45"></path><path d="M960 184.3L888.7 134.3L842.7 236.4Z" fill="#524d45" stroke="#524d45"></path><path d="M850.7 96.1L877.7 0L810.5 0Z" fill="#4e4941" stroke="#4e4941"></path><path d="M960 245.4L842.7 236.4L846.7 290.6Z" fill="#332f2a" stroke="#332f2a"></path><path d="M885.7 453.9L892.7 352.7L755.5 354.7Z" fill="#37332e" stroke="#37332e"></path><path d="M107.3 103.1L209.5 125.3L210.5 96.1Z" fill="#332f2a" stroke="#332f2a"></path><path d="M107.3 103.1L118.3 160.3L209.5 125.3Z" fill="#332f2a" stroke="#332f2a"></path><path d="M136.5 540L226.8 540L182.5 428.9Z" fill="#454039" stroke="#454039"></path><path d="M182.5 428.9L226.8 540L286.8 451.9Z" fill="#524d45" stroke="#524d45"></path><path d="M76.3 198.4L93.3 338.6L171.5 315.6Z" fill="#524d45" stroke="#524d45"></path><path d="M145.5 365.7L108.3 398.7L182.5 428.9Z" fill="#575249" stroke="#575249"></path><path d="M797.5 500.9L885.7 453.9L731.2 404.7Z" fill="#332f2a" stroke="#332f2a"></path><path d="M855.7 540L885.7 453.9L797.5 500.9Z" fill="#454039" stroke="#454039"></path><path d="M93.3 338.6L108.3 398.7L145.5 365.7Z" fill="#37332e" stroke="#37332e"></path><path d="M147.5 0L107.3 103.1L210.5 96.1Z" fill="#575249" stroke="#575249"></path><path d="M118.3 160.3L76.3 198.4L203.5 222.4Z" fill="#332f2a" stroke="#332f2a"></path><path d="M107.3 103.1L76.3 198.4L118.3 160.3Z" fill="#605b52" stroke="#605b52"></path><path d="M235.8 0L147.5 0L210.5 96.1Z" fill="#454039" stroke="#454039"></path><path d="M960 114.1L877.7 0L850.7 96.1Z" fill="#575249" stroke="#575249"></path><path d="M960 327.6L960 245.4L846.7 290.6Z" fill="#524d45" stroke="#524d45"></path><path d="M888.7 134.3L960 114.1L850.7 96.1Z" fill="#3c3731" stroke="#3c3731"></path><path d="M960 327.6L846.7 290.6L892.7 352.7Z" fill="#3c3731" stroke="#3c3731"></path><path d="M764.5 540L855.7 540L797.5 500.9Z" fill="#605b52" stroke="#605b52"></path><path d="M960 404.7L960 327.6L892.7 352.7Z" fill="#49443d" stroke="#49443d"></path><path d="M960 245.4L960 184.3L842.7 236.4Z" fill="#49443d" stroke="#49443d"></path><path d="M960 404.7L892.7 352.7L885.7 453.9Z" fill="#3c3731" stroke="#3c3731"></path><path d="M147.5 0L115.3 0L107.3 103.1Z" fill="#403b35" stroke="#403b35"></path><path d="M0 122.3L0 246.4L76.3 198.4Z" fill="#37332e" stroke="#37332e"></path><path d="M960 184.3L960 114.1L888.7 134.3Z" fill="#49443d" stroke="#49443d"></path><path d="M64.3 477.9L136.5 540L182.5 428.9Z" fill="#49443d" stroke="#49443d"></path><path d="M64.3 477.9L182.5 428.9L108.3 398.7Z" fill="#524d45" stroke="#524d45"></path><path d="M960 443.9L960 404.7L885.7 453.9Z" fill="#605b52" stroke="#605b52"></path><path d="M960 540L960 443.9L885.7 453.9Z" fill="#5b564e" stroke="#5b564e"></path><path d="M0 367.7L108.3 398.7L93.3 338.6Z" fill="#403b35" stroke="#403b35"></path><path d="M0 426.9L64.3 477.9L108.3 398.7Z" fill="#3c3731" stroke="#3c3731"></path><path d="M0 122.3L76.3 198.4L107.3 103.1Z" fill="#3c3731" stroke="#3c3731"></path><path d="M76.3 198.4L0 246.4L93.3 338.6Z" fill="#524d45" stroke="#524d45"></path><path d="M0 246.4L0 316.6L93.3 338.6Z" fill="#454039" stroke="#454039"></path><path d="M960 114.1L960 0L877.7 0Z" fill="#37332e" stroke="#37332e"></path><path d="M0 316.6L0 367.7L93.3 338.6Z" fill="#5b564e" stroke="#5b564e"></path><path d="M0 55.1L0 122.3L107.3 103.1Z" fill="#49443d" stroke="#49443d"></path><path d="M0 540L60.3 540L64.3 477.9Z" fill="#575249" stroke="#575249"></path><path d="M64.3 477.9L60.3 540L136.5 540Z" fill="#403b35" stroke="#403b35"></path><path d="M855.7 540L960 540L885.7 453.9Z" fill="#454039" stroke="#454039"></path><path d="M0 367.7L0 426.9L108.3 398.7Z" fill="#332f2a" stroke="#332f2a"></path><path d="M115.3 0L0 55.1L107.3 103.1Z" fill="#4e4941" stroke="#4e4941"></path><path d="M115.3 0L0 0L0 55.1Z" fill="#49443d" stroke="#49443d"></path><path d="M0 426.9L0 540L64.3 477.9Z" fill="#524d45" stroke="#524d45"></path></g></svg>